# xmcd
#
# Track frame offsets:
#	150
#	21756
#	41851
#	58889
#	75100
#	93687
#	114616
#	130984
#	152378
#	168598
#	188954
#	205549
#
# Disc length: 2959 seconds
# Revision: 0
# Processed by: cddbd v1.5.2PL0 Copyright (c) Steve Scherf et al.
# Submitted via: dBpowerAMP V12.0
#
DISCID=9a0b8d0c
DTITLE=The Johnny Max Band - The Greatest Hits of The johnny Max Band
DYEAR=2007
DGENRE=Blues
TTITLE0=Daddy's Little Girl
TTITLE1=Down In History
TTITLE2=A Lesson I've Learned
TTITLE3=Brown's Line
TTITLE4=Song Of New York
TTITLE5=Too Many fish
TTITLE6=Big Ol' Girls (Need Some Lovin' Too)
TTITLE7=I'm in Trouble
TTITLE8=She's Not The Marrying Kind
TTITLE9=Write Your Name
TTITLE10=Mimico Bus
TTITLE11=Waiting On You
EXTD=
EXTT0=
EXTT1=
EXTT2=
EXTT3=
EXTT4=
EXTT5=
EXTT6=
EXTT7=
EXTT8=
EXTT9=
EXTT10=
EXTT11=
PLAYORDER=
